<svg xmlns="http://www.w3.org/2000/svg" xmlns:lucid="lucid" width="1377.57" height="271.15"><g transform="translate(2120.5555562467375 80.18323296238839)" lucid:page-tab-id="0_0"><path d="M-1605.7 46.3c-2.84 0-5.62.36-7.98.95-7.08 1.75-8.4 5.38-8.4 12.16v8.9h16.73v2.92h-22.98c-4.86 0-9.16 4.1-10.48 11.8-1.54 8.9-1.6 14.4 0 23.64 1.17 6.9 4 11.8 8.88 11.8h5.76v-10.63c0-7.72 4.8-14.5 10.48-14.5h16.74c4.65 0 8.33-5.27 8.33-11.82V59.4c0-6.3-3.83-11.1-8.34-12.15-2.92-.7-5.9-.94-8.75-.94zm-9.02 7.15c1.74 0 3.13 1.98 3.13 4.44 0 2.45-1.38 4.44-3.12 4.44-1.73 0-3.2-2-3.2-4.45 0-2.46 1.47-4.45 3.2-4.45z" stroke="#000" stroke-opacity="0" fill="url(#a)"/><path d="M-1586.53 71.22v10.3c0 8.06-4.86 14.73-10.4 14.73h-16.75c-4.58 0-8.4 5.5-8.4 11.93v22.1c0 6.3 3.96 10.06 8.4 11.8 5.28 2.23 10.35 2.58 16.74 0 4.16-1.63 8.33-5.02 8.33-11.8v-8.9h-16.75v-2.9h25.14c4.85 0 6.66-4.7 8.4-11.82 1.73-7.25 1.66-14.27 0-23.63-1.26-6.78-3.55-11.8-8.4-11.8zm-9.37 56.14c1.73 0 3.12 1.98 3.12 4.44 0 2.46-1.4 4.44-3.12 4.44-1.74 0-3.13-1.98-3.13-4.44 0-2.46 1.4-4.44 3.13-4.44z" stroke="#000" stroke-opacity="0" fill="url(#b)"/><path d="M-1605.14 151.2c12.43 0 22.43 2.7 22.43 5.98 0 3.4-10 6.08-22.44 6.08-12.36 0-22.42-2.7-22.42-6.08 0-3.28 10.06-5.97 22.42-5.97z" stroke="#000" stroke-opacity="0" stroke-width="15.42" fill="url(#c)"/><path d="M-1652.8-11.48c-2.82 0-6.07-1.4-7.8-4.24V-.46h-6.08v-37.5h5.42l.22 4.08c1.95-3.2 5.2-4.84 8.24-4.84 6.08 0 10.42 5.88 10.42 13.62 0 7.82-4.34 13.62-10.4 13.62zm-1.73-22.1c-3.47 0-6.3 3.2-6.3 8.48 0 5.36 2.83 8.5 6.3 8.5 3.47 0 6.3-3.14 6.3-8.5 0-5.28-2.83-8.48-6.3-8.48zM-1619.8-12.15l-.23-4.17c-1.74 3.2-5 4.92-8.25 4.84-6.07 0-10.4-5.8-10.4-13.62 0-7.74 4.33-13.62 10.4-13.62 3.26 0 6.5 1.72 8.25 4.84l.22-4.1h5.4v25.83zm-6.52-21.43c-3.48 0-6.3 3.2-6.3 8.48 0 5.36 2.82 8.5 6.3 8.5 3.47 0 6.3-3.14 6.3-8.5 0-5.28-2.83-8.48-6.3-8.48zM-1593.34-12.15v-14.3c0-5.05-1.52-6.68-4.34-6.68s-5.86 2.97-5.86 6.54v14.45h-6.08v-25.82h5.65l.2 4.76c1.53-3.28 4.8-5.52 8.26-5.52 5.85 0 8.02 4.77 8.02 11.17v15.4zM-1565.57-12.15l-.22-4.1c-1.72 3.13-5.2 4.85-8.23 4.85-6.08 0-10.4-5.88-10.4-13.7 0-7.74 4.32-13.62 10.4-13.62 3.04 0 6.08 1.42 8.03 4.25v-13.55h5.86v35.87zm-6.5-21.43c-3.7 0-6.52 3.2-6.52 8.48 0 5.36 2.83 8.5 6.52 8.5 3.47 0 6.3-3.14 6.3-8.5 0-5.28-2.83-8.48-6.3-8.48zM-1537.58-12.15l-.2-4.1c-1.97 3.13-5.22 4.85-8.48 4.85-5.86 0-10.4-5.88-10.4-13.7 0-7.74 4.55-13.62 10.4-13.62 3.26 0 6.5 1.72 8.47 4.84l.22-4.1h5.43v25.83zm-6.72-21.43c-3.48 0-6.3 3.2-6.3 8.48 0 5.36 2.82 8.5 6.3 8.5 3.47 0 6.3-3.14 6.3-8.5 0-5.28-2.83-8.48-6.3-8.48zM-1518.92-11.33c-3.47 0-6.3-.9-9.1-2.9l1.08-4.77c1.73 1.27 4.55 2.83 7.8 2.83 2.4 0 4.13-.82 4.13-2.97 0-1.86-1.75-2.53-4.78-3.35-5.43-1.33-7.38-4.68-7.38-8.33 0-4.1 2.6-7.96 8.68-7.96 3.7 0 6.94 1.87 7.6 2.4l-1.1 4.53c-1.94-1.4-3.9-2.08-6.3-2.16-2.6 0-3.67.97-3.67 2.53 0 1.7 1.52 2.46 3.9 3.13 5.86 1.5 8.25 4.6 8.25 8.1 0 5.6-3.47 8.94-9.12 8.94zM-1715.5-55.6h6.94v16.88h-6.94v-16.9zM-1715.5-20.93h6.94v16.9h-6.94v-16.9z" stroke="#000" stroke-opacity="0" stroke-width=".37" fill="#130754"/><path d="M-1715.5-33.8h6.94v7.96h-6.94v-7.96z" stroke="#000" stroke-opacity="0" stroke-width=".37" fill="#ffca00"/><path d="M-1726.8-41.7h6.96v56.12h-6.95v-56.1zM-1704.44-7h6.95V9.87h-6.94v-16.9zM-1704.44-41.7h6.95v16.9h-6.94v-16.9z" stroke="#000" stroke-opacity="0" stroke-width=".37" fill="#130754"/><path d="M-1704.44-19.9h6.95v7.97h-6.94v-7.96z" stroke="#000" stroke-opacity="0" stroke-width=".37" fill="#e70488"/><path d="M-1693.6-60h7.17v56.1h-7.16V-60z" stroke="#000" stroke-opacity="0" stroke-width=".37" fill="#130754"/><path d="M-1299.65 74.5c-2.58-3.16-2.58-3.28-2.1-3.92.7-.94 30-33.74 30.46-34.03.24-.23 4 1.87 4.7 2.8.23.36-2.12 3.4-14.77 19.3-8.44 10.4-15.23 18.95-15.47 19-.23.06-1.4-1.4-2.8-3.15zm129.36-.35c-.23-.3-.23-2.05-.23-6.2 0-3.22 0-5.85-.23-5.85 0 0-.7.64-1.4 1.46-1.65 1.87-3.3 2.46-5.87 2.34-5.62-.35-9.13-6.43-9.13-16.2 0-6.13 1.17-10.34 3.75-13.27 2.56-3.04 6.3-3.86 9.36-2.04.94.5 1.87 1.33 2.34 1.9.47.54.94 1 .94 1 .23 0 .23-.7.23-1.5l.24-1.53 3.3-.12 3.27-.06v20.1l-.23 20.18-2.82.06c-2.1.06-3.28 0-3.5-.3zm-3.04-16.03c3.75-2.33 4-13.03.47-16.3-1.17-1.24-3.52-1.35-4.7-.36-1.86 1.52-2.8 4.56-2.8 8.2 0 6.7 3.28 10.75 7.03 8.47zm-133.1 8.02c-1.18-1.64-2.1-2.87-1.88-3.1 0-.53 16.87-17.13 17.34-17.13.24 0 4.22 3.7 4.22 4.04 0 .35-16.87 18.9-17.34 18.9 0 0-1.17-1.24-2.35-2.7zm182.78-.36c-2.1-.58-3.98-1.8-5.62-4.03-2.35-3.1-3.52-6.84-3.52-12 0-7 2.58-12.5 6.8-15.13 1.64-.94 1.87-1 4.45-1s3.05.12 4.45.88c4 2.34 6.57 8.48 6.33 15.56v2.7l-7.5.04c-3.98.06-7.5.24-7.5.36-.46.46.7 3.45 1.64 4.5 2.1 2.22 5.16 2.1 7.97-.4l1.17-1 .95 1.4c.7.82 1.4 1.93 1.88 2.5l.7 1.06-1.17 1.3c-2.1 2.27-5.4 3.8-8.2 3.73-.7-.06-1.88-.23-2.82-.47zm6.1-18.7c.46-.36.46-.53 0-2.1-.94-4.28-4-6.03-6.33-3.64-.93.94-1.4 2-1.87 4.04-.23 1.28-.23 1.58 0 1.8.7.48 7.74.36 8.2-.1zm-107.33 18.4c-3.5-1.57-5.38-6.24-4.68-11.33.47-3.57 1.87-5.67 4.22-7.02 1.87-1 5.86-1.23 7.96-.47.94.24 1.65.47 1.65.47.46 0 .46-1.1.23-2.34-.47-1.47-1.17-2.58-2.34-3.28-1.18-.76-4-.7-6.33.23-.93.4-1.87.6-2.1.4-.23-.34-1.4-5.02-1.4-5.66 0-1.18 4.45-2.76 8.2-2.76 4.2-.06 7.03 1.23 8.67 4.1 1.87 2.98 1.87 3.4 1.87 16.13v11.46l-2.8.12c-1.65.06-3.3-.06-3.3-.17-.23-.18-.23-.76-.46-1.35 0-.58 0-1.1-.23-1.23 0-.05-.47.3-.94.88-1.63 1.7-2.34 2.05-4.9 2.16-1.65.06-2.83-.06-3.3-.35zm7.74-6.3c1.17-.94 1.87-2.46 1.87-4.74 0-2.28-.22-2.57-3.27-2.75-1.87-.12-2.1-.07-3.04.64-1.18 1-1.65 1.98-1.42 3.97.24 2.6 1.17 3.52 3.52 3.58.7 0 1.64-.23 2.34-.7zm63.5 6.37c-1.4-.58-3.27-2.92-3.98-4.97-.47-1.75-.47-2-.47-14.03V34.27l3.27-.12 3.3-.06v10.58c.22 9.4.22 10.7.7 11.63 1.16 3.05 4.9 3 6.08-.05.7-1.22.7-1.7.7-11.75V34.1l3.52.05 3.28.12v15.26c0 11.17 0 15.32-.23 15.67-.24.35-.94.4-3.28.35l-3.05-.12v-1.4c-.25-.82-.25-1.58-.48-1.7 0-.17-.7.36-1.4 1.06-1.4 1.98-2.82 2.5-5.16 2.5-.94 0-2.35-.17-2.8-.35zm52.5.06c-1.4-.57-2.34-1.63-3.28-3.44l-.7-1.8V41.1h-1.18c-1.4 0-1.4-.46-1.4-3.85 0-2.92 0-2.98.7-3.1 1.88-.23 1.88 0 1.88-3.97 0-2.34 0-3.75.23-3.98.46-.53 6.08-.53 6.32 0 .23.23.47 2.05.47 4.1v3.62l2.56.1 2.35.13v3.4l-.23 3.38-2.34.12-2.34.06v8.14c0 10.23-.25 9.82 4.2 9 .47-.12.47.12.7 3.04v3.1l-1.16.7c-1.4.76-5.4 1.06-6.8.53zm-154.2-.34V24.4h7.03c6.8.05 7.27.1 8.9.75 4.46 1.93 7.04 6.14 7.5 12.28.24 6.3-2.1 11.52-6.32 13.85-2.35 1.23-3.98 1.58-7.03 1.58-1.88 0-2.8.12-3.05.47-.23.23-.23 2.57-.23 6.26l-.24 5.83-3.04.12c-2.58.06-3.28 0-3.52-.3zm13.36-20.64c1.87-1.05 3.05-3.22 3.05-5.97 0-4.38-1.88-6.3-6.33-6.66-3.52-.3-3.28-.6-3.28 6.36v6.38c.47.75 5.15.7 6.56-.12zm38.67 20.58c-.24-.35-.24-4.68-.24-15.67l.24-15.26 3.04-.12c2.6-.06 3.3.06 3.53.35.23.24.23 1.17.23 2.05 0 1.64.24 2.22.7 1.1.24-.75 1.88-2.85 2.82-3.44.23-.22 1.17-.52 1.87-.63l1.4-.18V42.33l-1.16.23c-1.9.35-3.06 1.1-4 2.46-1.4 2.1-1.64 3.5-1.64 11.93 0 4.5 0 7.66-.23 8.07-.24.52-.7.58-3.28.58-2.1 0-3.05-.1-3.28-.4zm-109.2-6.78c-.94-1.35-1.65-2.52-1.4-2.63.7-.83 7.95-7.03 8.2-7.03.46 0 3.97 3.68 3.97 4.1 0 .52-7.97 8-8.43 8-.46 0-1.4-1.1-2.34-2.45zm-4.93-6.32c-1.64-1.8-1.64-2.16-1.4-2.5.46-.54 23.66-18.96 24.13-19.13.47-.18 3.75 2.22 3.75 2.63 0 .35-23.9 20.76-24.6 21-.24.05-.94-.77-1.88-2zm15.47-2.92c-.93-.94-1.87-1.93-1.87-2.1 0-.24.94-1.12 1.88-2 1.18-.87 5.87-4.96 10.32-9 4.7-4.1 8.67-7.37 8.9-7.37.7 0 3.75 2.24 3.75 2.6-.23.5-20.38 19.7-20.85 19.7-.24 0-1.17-.83-2.1-1.82zm-20.38-2.87c-.94-1.45-1.17-1.8-.94-2.15.24-.3 14.77-10.7 16.4-11.87.48-.18 3.52 2.52 3.3 2.87 0 .46-16.42 12.98-16.9 12.98-.22 0-.92-.82-1.86-1.82zm34.92.13c-.94-.88-1.88-1.8-1.88-2-.23-.28 9.38-10 11.72-11.86.23-.35.7-.23 2.58.94.93.77 1.87 1.53 1.87 1.7 0 .47-11.25 12.75-11.95 12.87-.23 0-1.17-.7-2.34-1.64zm-38.67-5.15l-1.4-1.7.7-.52c.23-.23 7.03-4.85 15.23-10.17l14.53-9.72 1.4.82c.94.47 1.4 1 1.4 1.23 0 .23-30 21.8-30.45 21.8 0 0-.7-.8-1.4-1.75zm22.5-8.65c-.7-.64-1.17-1.3-1.17-1.52 0-.16 2.8-2.33 6.1-4.73l6.08-4.38 1.64.98c.7.6 1.4 1.1 1.4 1.3 0 .34-11.94 9.52-12.4 9.52-.25-.06-.95-.52-1.65-1.17zm12.18-1.93c-.7-.58-1.4-1.3-1.4-1.46 0-.35 4.2-3.8 4.92-3.98.23-.1 3.05 1.7 3.28 2.17 0 .1 0 .46-.23.7-.94.94-4.46 3.74-4.7 3.74-.23 0-.93-.53-1.87-1.17z" stroke="#000" stroke-opacity="0" stroke-width=".56" fill="#50abf1"/><path d="M-1972.4 44.06c0 6.77-4.35 11.7-9.78 11.7-5.2 0-9.54-4.93-9.54-11.7 0-6.86 4.34-11.8 9.54-11.8 5.43 0 9.77 4.94 9.77 11.8zm-4.35 0c0-4.2-2.4-7.13-5.43-7.13-2.82 0-5.42 2.92-5.42 7.13 0 4.2 2.6 7.14 5.42 7.14 3.04 0 5.43-2.93 5.43-7.14zM-1951.58 44.06c0 6.77-4.34 11.7-9.77 11.7-5.2 0-9.54-4.93-9.54-11.7 0-6.86 4.35-11.8 9.55-11.8 5.43 0 9.77 4.94 9.77 11.8zm-4.34 0c0-4.2-2.4-7.13-5.43-7.13-2.82 0-5.42 2.92-5.42 7.13 0 4.2 2.6 7.14 5.42 7.14 3.04 0 5.43-2.93 5.43-7.14zM-1931.84 33v21.13c0 8.68-4.12 12.25-9.1 12.25-4.57 0-7.4-3.84-8.47-6.95l3.68-1.92c.65 1.93 2.17 4.22 4.77 4.22 3.25 0 5.2-2.38 5.2-6.86v-1.74h-.2c-.88 1.46-2.6 2.65-5 2.65-4.77 0-9.1-5.12-9.1-11.7 0-6.6 4.33-11.8 9.1-11.8 2.4 0 4.12 1.27 5 2.65h.2V33h3.9zm-3.7 11.06c0-4.1-2.16-7.13-4.98-7.13-3.03 0-5.42 3.02-5.42 7.13 0 4.12 2.4 7.14 5.42 7.14 2.82 0 5-3.02 5-7.14zM-1925.1 20.65v34.48h-4.13V20.65zM-1909.05 47.9l3.25 2.66c-1.08 1.92-3.7 5.2-8.03 5.2-5.42 0-9.55-5.1-9.55-11.7 0-7.04 4.13-11.8 9.12-11.8 5 0 7.38 4.85 8.24 7.5l.44 1.38-12.8 6.5c.86 2.37 2.38 3.56 4.55 3.56s3.7-1.28 4.78-3.3zm-10.2-4.2l8.68-4.4c-.44-1.46-1.96-2.46-3.7-2.46-1.94 0-4.98 2.28-4.98 6.86zM-2007.35 40.95V36h13.9v3.03c0 3.75-.66 8.33-3.48 11.62-2.6 3.38-5.86 5.12-10.42 5.12-8.24 0-14.97-8.14-14.97-18.2 0-10.06 6.73-18.3 14.97-18.3 4.56 0 7.8 2.2 10.2 5.04l-2.82 3.48c-1.74-1.92-4.12-3.57-7.38-3.57-5.86 0-10.63 5.96-10.63 13.37 0 7.32 4.77 13.26 10.63 13.26 3.9 0 6.08-1.92 7.6-3.66 1.08-1.46 1.95-3.47 2.17-6.22z" stroke="#000" stroke-opacity="0" stroke-width=".83" fill="#747474"/><path d="M-2011.25 74.34l-4.13 14.36h8.68l-4.34-14.36zm-7.82 26.7h-3.68l9.76-31.73h3.92l9.76 31.75h-3.7l-2.6-8.6h-10.84zm0 0M-1997.8 79.37h3.25v3.02h.22c.43-1.1 1.3-1.93 2.17-2.66 1.1-.73 2.17-1.1 3.26-1.1 2.38 0 3.9.82 5.2 2.3 1.1 1.54 1.74 3.64 1.74 6.48v13.63h-3.47V87.7c0-3.57-1.52-5.3-4.34-5.3-1.3 0-2.4.63-3.26 2-.87 1.28-1.3 2.84-1.3 4.67v11.98h-3.47zm0 0M-1975.88 94.46c0 1 .43 1.92 1.08 2.66.87.73 1.52 1 2.6 1 1.3 0 2.6-.55 3.7-1.83 1.08-1.3 1.73-2.75 1.73-4.5-1.1-1-2.6-1.54-4.34-1.54-1.3 0-2.62.45-3.48 1.18-.87.83-1.3 1.83-1.3 3.02zm4.34-15.82c2.38 0 4.33.82 5.85 2.47 1.32 1.56 2.18 3.85 2.18 6.6v13.35h-3.25v-2.93h-.22c-1.3 2.47-3.24 3.66-5.4 3.66-1.97 0-3.7-.73-5-2.1-1.3-1.47-1.96-3.2-1.96-5.3 0-2.3.65-4.03 2.17-5.4 1.32-1.3 3.27-2.02 5.44-2.02 2.17 0 3.7.46 5 1.38v-.92c0-1.46-.45-2.65-1.3-3.66-1.1-1-2.18-1.46-3.27-1.46-1.95 0-3.47.9-4.56 2.83l-2.8-2.2c1.5-2.83 3.9-4.3 7.15-4.3zm0 0M-1956.57 69.3v31.75h-3.48V69.3zm0 0M-1937.05 79.37l-11.06 31.28h-3.48l4.12-10.97-7.16-20.3h3.47l5.43 15.63 5.2-15.63zm0 0M-1927.93 101.42c-1.3 0-2.6-.55-3.47-1.65-.87-1.1-1.52-2.56-1.52-4.58V83.11h-3.04v-3.75h3.04V72.7h3.25v6.67h4.56v3.75h-4.57v10.8c0 1.46.22 2.46.87 2.92.43.55.87.73 1.52.73h.65c.43-.1.65-.18.87-.36l.87 3.67c-.86.36-1.73.55-3.03.55zm0 0M-1917.95 71.87c0 .82-.22 1.46-.65 2.1-.44.55-1.1.83-1.74.83-.65 0-1.08-.28-1.52-.83-.43-.64-.86-1.28-.86-2.1 0-.82.43-1.46.86-2 .44-.56.87-.84 1.52-.84s1.3.28 1.74.83c.43.55.65 1.2.65 2zm-.65 7.5v21.68h-3.26V79.37zm0 0M-1907.32 101.78c-2.6 0-4.77-1.1-6.5-3.3-1.74-2.2-2.6-4.93-2.6-8.22 0-3.4.86-6.13 2.6-8.33 1.73-2.2 3.9-3.3 6.5-3.3 1.74 0 3.26.56 4.78 1.66 1.3 1.17 2.17 2.64 3.03 4.65l-3.04 1.55c-1.1-2.74-2.6-4.1-5-4.1-1.5 0-2.82.72-3.9 2.18-1.1 1.56-1.74 3.4-1.74 5.68 0 2.2.65 4.02 1.74 5.57 1.08 1.47 2.4 2.3 3.9 2.3 2.4 0 4.13-1.38 5-4.12l3.03 1.56c-.66 1.92-1.74 3.48-3.04 4.57-1.3 1.1-3.04 1.65-4.78 1.65zm0 0M-1883.02 95.1c0 1.83-.65 3.48-1.95 4.76-1.52 1.28-3.04 1.92-5.2 1.92-1.74 0-3.26-.55-4.78-1.74-1.3-1.1-2.17-2.56-2.82-4.48l3.04-1.55c.43 1.38 1.08 2.38 1.95 3.12.65.73 1.74 1 2.6 1 1.1 0 1.96-.27 2.6-.82.88-.55 1.1-1.2 1.1-2 0-1.4-.88-2.4-2.6-3.03l-3.05-.92c-3.47-1.1-5.2-3.1-5.2-6.13 0-2 .64-3.56 2.16-4.75 1.3-1.2 2.82-1.83 5-1.83 1.5 0 3.03.46 4.12 1.37 1.3.93 2.17 2.2 2.82 3.67l-3.04 1.55c-.43-.9-.87-1.64-1.74-2.1-.66-.55-1.53-.82-2.4-.82-.86 0-1.73.27-2.38.82-.65.46-1.1 1.2-1.1 1.92.02 1.2 1.1 2.1 2.84 2.65l2.82.82c3.47 1.1 5.2 3.3 5.2 6.58zm0 0" stroke="#000" stroke-opacity="0" stroke-width="1.11" fill="#747474"/><path d="M-2054.22 29.9v67.3c0 7.5 4.34 11.72 8.68 11.72 4.13 0 8.9-3.57 8.9-11.7V30.4c0-6.94-4.34-11.24-8.9-11.24-4.55 0-8.68 4.76-8.68 10.7zm0 0" stroke="#000" stroke-opacity="0" stroke-width="1.11" fill="#f8ab00"/><path d="M-2077.22 64v33.2c0 7.5 4.34 11.72 8.9 11.72 4.12 0 8.68-3.57 8.68-11.7V64.54c0-6.86-4.12-11.25-8.68-11.25s-8.9 4.76-8.9 10.7zm0 0M-2082.42 98.2c0 5.87-3.9 10.72-8.9 10.72-4.77 0-8.68-4.85-8.68-10.7 0-5.95 3.9-10.7 8.68-10.7 5 0 8.9 4.75 8.9 10.7" stroke="#000" stroke-opacity="0" stroke-width="1.11" fill="#e37300"/><path d="M-850.62 43.76c0 1.7.12 3 .36 4.05.37.98.73 2.03 1.34 3.24.24.32.24.73.24 1.05 0 .4-.24.88-.73 1.28l-2.56 1.94c-.36.25-.73.4-.97.4-.5 0-.85-.23-1.22-.64-.6-.73-1.1-1.37-1.45-2.1-.5-.8-.85-1.62-1.34-2.67-3.16 4.14-7.05 6.24-11.9 6.24-3.3 0-6.08-1.13-8.03-3.24-1.94-2.18-3.04-5.1-3.04-8.65 0-3.88 1.2-6.95 3.76-9.3 2.43-2.34 5.7-3.47 9.84-3.47 1.34 0 2.8.08 4.26.32 1.58.25 3.03.57 4.74.97v-3.23c0-3.4-.73-5.82-1.95-7.2-1.34-1.37-3.52-2.1-6.56-2.1-1.47 0-2.93.25-4.38.65-1.46.4-2.92.88-4.38 1.45-.6.32-1.1.56-1.46.64-.24.07-.48.07-.6.07-.6 0-.86-.4-.86-1.37v-2.18c0-.73.13-1.3.25-1.62.24-.32.6-.57 1.2-.9 1.35-.8 3.05-1.53 5.12-2 1.93-.66 4-.9 6.18-.9 4.86 0 8.4 1.2 10.7 3.64 2.18 2.42 3.28 6.14 3.28 11.07v14.56zm-16.4 6.88c1.33 0 2.67-.33 4.13-.8 1.46-.58 2.8-1.55 3.9-2.92.6-.8 1.1-1.78 1.33-2.83.24-1.14.37-2.44.37-3.97v-1.86c-1.1-.33-2.44-.57-3.65-.8-1.34-.17-2.55-.25-3.9-.25-2.66 0-4.6.56-5.94 1.77-1.33 1.2-1.94 2.9-1.94 5.17 0 2.1.5 3.72 1.46 4.77.97 1.13 2.3 1.7 4.25 1.7zm32.44 4.85c-.73 0-1.22-.18-1.58-.5-.25-.24-.6-.9-.85-1.7l-9.5-34.76c-.23-.97-.36-1.53-.36-1.86 0-.72.37-1.13.98-1.13h4c.74 0 1.22.16 1.6.5.23.23.47.88.72 1.77l6.8 29.74 6.32-29.75c.24-.88.5-1.52.73-1.76.35-.25.96-.5 1.7-.5h3.15c.85 0 1.34.17 1.7.5.24.24.6.9.73 1.78l6.32 30.07 7.05-30.08c.24-.9.48-1.54.85-1.78.24-.25.85-.5 1.58-.5h3.76c.6 0 .97.42.97 1.14 0 .25 0 .5-.1.73 0 .33-.13.66-.25 1.14l-9.72 34.76c-.24.9-.6 1.46-.85 1.78-.37.24-.85.4-1.58.4h-3.52c-.73 0-1.22-.07-1.6-.4-.23-.32-.6-.9-.7-1.78l-6.33-29.02-6.2 28.94c-.24.9-.5 1.46-.73 1.78-.36.32-.97.5-1.7.5h-3.4zm51.88 1.2c-2.06 0-4.13-.33-6.2-.8-2.06-.58-3.64-1.14-4.6-1.8-.74-.4-1.1-.88-1.35-1.28-.12-.4-.24-.9-.24-1.3v-2.26c0-.97.37-1.37.98-1.37.24 0 .5 0 .73.07.25.16.62.32.98.48 1.46.65 2.92 1.2 4.5 1.54 1.58.4 3.16.55 4.86.55 2.55 0 4.5-.48 5.83-1.45 1.34-.97 2.07-2.43 2.07-4.3 0-1.28-.37-2.25-1.1-3.14-.73-.9-2.06-1.6-4-2.34l-5.84-2.02c-3.04-1.05-5.22-2.6-6.56-4.6-1.34-1.95-1.95-4.13-1.95-6.48 0-1.94.36-3.55 1.1-5 .72-1.46 1.7-2.68 2.9-3.73 1.22-.98 2.56-1.8 4.14-2.35 1.7-.5 3.4-.73 5.1-.73.97 0 1.82.08 2.67.16 1 .16 1.84.32 2.7.5.84.23 1.57.47 2.3.7.72.34 1.33.58 1.7.82.6.4.97.73 1.2 1.13.25.4.38.9.38 1.54v2.1c0 .9-.37 1.38-.98 1.38-.24 0-.85-.17-1.45-.5-2.3-1.2-5-1.77-7.78-1.77-2.3 0-4.13.4-5.35 1.3-1.33.8-1.94 2.1-1.94 3.96 0 1.3.36 2.34 1.2 3.23.86.8 2.32 1.7 4.5 2.43l5.72 2.02c2.92 1.05 4.98 2.5 6.2 4.36 1.33 1.78 1.94 3.96 1.94 6.3 0 1.87-.36 3.65-1.1 5.18-.72 1.54-1.7 2.9-2.9 3.96-1.35 1.13-2.8 1.94-4.5 2.5-1.83.66-3.77.98-5.84.98z" stroke="#000" stroke-opacity="0" stroke-width=".82" fill="#252f3e"/><path d="M-775.04 78.53c-13.25 10.9-32.57 16.73-49.2 16.73-23.34 0-44.24-9.54-60.16-25.47-1.22-1.3-.12-3 1.46-2.03 17.13 11.08 38.27 17.8 60.14 17.8 14.7 0 30.87-3.4 45.8-10.44 2.2-1.13 4.15 1.62 1.96 3.4z" stroke="#000" stroke-opacity="0" stroke-width=".82" fill="#f90"/><path d="M-769.45 71.5c-1.7-2.43-11.3-1.14-15.56-.57-1.34.16-1.6-1.06-.37-2.03 7.53-5.9 20.05-4.2 21.5-2.26 1.47 2.02-.36 15.93-7.53 22.56-1.1 1.05-2.06.56-1.58-.8 1.58-4.46 5.23-14.48 3.53-16.9z" stroke="#000" stroke-opacity="0" stroke-width=".82" fill="#f90"/><path d="M-1861.32 48.33a6 6 0 0 1 6-6h43.82a3.32 3.32 0 0 0 3.32-3.33 1.27 1.27 0 0 1 2.22-.85l5.72 6.36a6.67 6.67 0 0 1 0 8.93l-5.72 6.36a1.27 1.27 0 0 1-2.22-.86 3.32 3.32 0 0 0-3.32-3.32h-43.82a6 6 0 0 1-6-6zM-1457.73 48.33a6 6 0 0 1 6-6h43.82a3.32 3.32 0 0 0 3.3-3.33 1.27 1.27 0 0 1 2.23-.85l5.72 6.36a6.67 6.67 0 0 1 0 8.93l-5.72 6.36a1.27 1.27 0 0 1-2.22-.86 3.32 3.32 0 0 0-3.3-3.32h-43.83a6 6 0 0 1-6-6zM-1023.76 58.96a6 6 0 0 1 6-6h43.8a3.32 3.32 0 0 0 3.34-3.32 1.27 1.27 0 0 1 2.22-.86l5.72 6.36a6.67 6.67 0 0 1 0 8.92l-5.72 6.36a1.27 1.27 0 0 1-2.22-.85 3.32 3.32 0 0 0-3.33-3.32h-43.8a6 6 0 0 1-6-6z" stroke="#3a414a" fill="#232f3e"/><defs><linearGradient gradientUnits="userSpaceOnUse" id="a" x1="-1640.48" y1="45.81" x2="-1601.46" y2="92.71"><stop offset="0%" stop-color="#5a9fd4"/><stop offset="100%" stop-color="#306998"/></linearGradient><linearGradient gradientUnits="userSpaceOnUse" id="b" x1="-1596.31" y1="131.33" x2="-1610.26" y2="103.81"><stop offset="0%" stop-color="#ffd43b"/><stop offset="100%" stop-color="#ffe873"/></linearGradient><radialGradient gradientUnits="userSpaceOnUse" id="c" fx="-1605.14" fy="157.24" cx="-1605.14" cy="157.24" r="15.76"><stop offset="0%" stop-color="#b8b8b8" stop-opacity=".5"/><stop offset="100%" stop-color="#7f7f7f" stop-opacity="0"/></radialGradient></defs></g></svg>